<?xml version="1.0" standalone="no"?>
<!DOCTYPE svg PUBLIC "-//W3C//DTD SVG 20010904//EN"
 "http://www.w3.org/TR/2001/REC-SVG-20010904/DTD/svg10.dtd">
<svg version="1.0" xmlns="http://www.w3.org/2000/svg"
 width="612.000000pt" height="612.000000pt" viewBox="0 0 612.000000 612.000000"
 preserveAspectRatio="xMidYMid meet">

<g transform="translate(0.000000,612.000000) scale(0.100000,-0.100000)"
fill="#000000" stroke="none">
<path d="M3974 5222 c-6 -4 -30 -41 -54 -82 -23 -41 -62 -107 -86 -146 -24
-39 -44 -74 -44 -78 0 -4 -9 -21 -21 -38 -12 -16 -19 -31 -17 -34 4 -4 58 70
58 79 0 5 160 270 172 284 13 16 7 25 -8 15z"/>
<path d="M2760 5196 c0 -24 83 -371 129 -541 60 -221 64 -235 72 -235 4 0 -4
39 -17 88 -44 158 -164 648 -164 670 0 11 -4 24 -10 27 -5 3 -10 -1 -10 -9z"/>
<path d="M3287 5148 c-27 -16 -46 -39 -67 -83 -51 -103 -55 -160 -55 -731 l0
-522 -85 -115 c-47 -63 -92 -125 -100 -137 -45 -67 -71 -100 -78 -100 -4 0
-31 39 -61 88 -30 48 -93 145 -139 215 l-84 129 24 26 c52 58 61 81 56 151
-10 142 -214 525 -321 602 -54 39 -70 42 -113 24 -35 -15 -150 -86 -197 -123
-67 -53 -186 -180 -193 -206 -9 -38 21 -97 114 -222 138 -185 214 -258 310
-294 71 -27 180 -34 216 -15 15 8 32 15 37 15 4 0 66 -87 136 -192 70 -106
137 -205 149 -220 24 -29 23 -50 -4 -85 -14 -18 -48 -29 -181 -58 -90 -20
-167 -32 -171 -28 -9 10 -40 168 -40 201 0 36 -28 80 -63 99 -51 28 -271 23
-462 -10 -324 -57 -597 -72 -780 -42 -125 21 -119 23 -112 -30 12 -85 93 -238
204 -383 35 -45 63 -86 63 -90 0 -11 -164 -258 -181 -272 -29 -25 -169 -202
-165 -209 3 -5 29 -15 58 -21 87 -21 422 3 548 40 72 21 77 17 84 -57 10 -99
36 -223 57 -264 29 -58 66 -70 180 -58 52 5 132 18 179 28 47 11 87 17 89 15
8 -7 -18 -46 -112 -175 -124 -167 -135 -209 -83 -302 l21 -39 -30 -25 c-66
-56 -172 -160 -203 -200 -86 -110 -106 -260 -44 -330 82 -94 228 -24 304 146
74 167 94 208 115 243 l23 37 62 -5 c62 -6 64 -5 106 31 34 30 145 182 207
284 6 9 91 138 189 286 99 149 180 271 181 272 3 6 305 96 309 92 3 -2 2 -157
-1 -343 l-6 -338 -26 6 c-235 55 -560 -59 -600 -210 -27 -101 53 -327 144
-407 62 -54 177 -84 263 -67 135 25 217 116 274 300 22 74 23 83 24 580 l1
504 34 12 c19 7 37 13 41 13 11 1 94 -157 169 -319 104 -227 119 -260 119
-265 0 -24 152 -323 183 -362 112 -137 207 -151 248 -35 9 27 7 39 -14 85 -13
29 -49 82 -78 118 -30 35 -66 80 -80 99 -14 19 -40 50 -57 68 -16 17 -29 32
-27 32 2 0 -5 10 -15 23 -123 145 -203 256 -252 347 -24 47 -62 116 -83 153
-21 38 -34 72 -29 76 13 12 310 110 335 111 3 0 5 -94 5 -208 -1 -237 2 -249
77 -283 84 -38 188 -22 560 82 343 96 502 125 732 132 63 2 70 4 67 21 -4 24
-83 127 -116 153 -13 11 -76 68 -140 129 -103 97 -133 134 -108 134 4 0 23 28
41 63 46 85 160 252 253 372 43 55 78 103 78 107 0 16 -90 31 -180 31 -102 -1
-287 -30 -391 -63 -35 -11 -67 -20 -71 -20 -5 0 -8 22 -8 49 0 58 -24 191 -40
221 -15 28 -59 49 -122 56 -69 8 -194 -17 -505 -102 -256 -69 -313 -82 -313
-68 0 11 14 33 104 161 38 54 91 130 118 168 26 39 81 117 122 175 42 58 90
126 108 153 18 26 57 80 85 120 63 86 68 125 27 194 -23 41 -24 46 -10 67 8
13 40 45 72 72 213 183 297 313 254 395 -15 26 -82 59 -123 59 -97 0 -182 -80
-253 -237 -24 -54 -56 -115 -71 -136 -25 -33 -32 -37 -58 -31 -123 26 -144 22
-183 -36 -12 -19 -29 -42 -36 -51 -12 -15 -190 -261 -271 -375 -93 -131 -201
-274 -206 -274 -11 0 -22 542 -15 735 3 99 11 209 16 245 12 72 52 165 76 174
23 9 54 -12 69 -47 l14 -32 14 33 c38 89 -48 152 -136 100z m1088 -151 c42
-31 -7 -114 -143 -242 -125 -117 -179 -165 -185 -165 -3 0 -11 9 -17 20 -9 17
-6 27 19 58 16 20 55 87 86 147 31 61 66 121 78 134 52 56 121 77 162 48z
m-2009 -413 c21 -26 43 -54 48 -63 5 -9 24 -40 43 -69 87 -133 187 -379 179
-440 -1 -9 -34 -41 -72 -70 l-69 -53 -71 4 c-91 5 -158 40 -242 127 -86 88
-242 297 -242 324 0 52 298 284 366 286 13 0 36 -18 60 -46z m1565 18 c65 -42
159 -157 159 -196 0 -8 -36 -65 -80 -128 -74 -103 -114 -161 -211 -303 -19
-27 -37 -52 -40 -55 -3 -3 -70 -97 -148 -210 -78 -113 -154 -215 -167 -227
-26 -24 -54 -30 -54 -13 0 9 147 239 160 250 4 3 36 50 73 105 37 55 93 138
125 184 31 46 62 92 69 104 6 11 15 22 20 26 14 10 132 178 140 198 13 36
-213 -268 -272 -365 -5 -10 -13 -19 -16 -22 -3 -3 -71 -104 -151 -225 -80
-121 -159 -234 -174 -251 -22 -23 -44 -33 -94 -44 -36 -7 -120 -26 -187 -41
-138 -33 -143 -33 -143 -18 0 6 42 69 93 139 50 70 99 137 107 150 8 12 31 43
50 69 19 26 55 75 80 110 25 35 55 76 68 91 12 15 22 33 22 39 0 6 3 11 8 11
4 0 22 21 39 48 31 46 186 259 355 490 59 80 89 112 103 112 12 0 41 -13 66
-28z m480 -993 c19 -7 40 -17 47 -24 16 -14 37 -308 37 -524 l0 -154 -82 2
c-152 4 -428 -53 -778 -159 -131 -40 -495 -154 -975 -305 -456 -143 -737 -215
-841 -215 -25 0 -45 7 -57 20 -36 39 -66 275 -77 609 l-7 184 43 -6 c45 -6
174 12 277 38 34 9 70 18 79 20 47 10 319 70 493 110 107 24 210 47 229 50 33
6 195 41 421 91 110 25 438 106 585 144 511 134 541 140 606 119z m-2088 -100
c20 -5 37 -14 37 -19 0 -19 -60 -49 -155 -79 -55 -16 -161 -49 -235 -72 -199
-61 -286 -114 -332 -203 -19 -36 -20 -58 -20 -268 l0 -228 -40 -10 c-87 -24
-405 -68 -495 -70 -23 0 -14 22 31 74 93 109 246 350 246 388 0 9 -29 55 -64
102 -100 132 -208 317 -195 331 3 2 37 -2 75 -10 143 -30 426 -16 749 39 215
36 332 44 398 25z m61 -131 c2 -13 9 -47 15 -77 13 -62 11 -65 -53 -75 -22 -4
-138 -30 -256 -58 -204 -48 -380 -72 -380 -52 0 5 11 21 23 35 40 44 155 92
372 154 90 26 207 66 235 81 34 18 39 17 44 -8z m2685 -7 c11 -7 6 -20 -29
-61 -77 -92 -116 -149 -222 -324 -43 -71 -78 -134 -78 -139 0 -11 61 -72 233
-231 64 -60 117 -113 117 -118 0 -4 -44 -8 -99 -8 -146 0 -323 -34 -616 -120
-217 -64 -343 -92 -425 -93 -96 -2 -120 10 -120 62 0 79 112 163 295 220 39
13 79 26 90 31 11 5 38 14 60 21 137 41 263 139 286 221 13 48 16 299 5 395
-8 61 -7 63 17 72 47 18 279 62 370 70 51 5 94 9 97 9 3 1 11 -2 19 -7z m-602
-547 c15 -39 -81 -96 -272 -163 -186 -66 -263 -98 -311 -131 -54 -36 -64 -37
-64 -7 0 66 23 203 36 213 15 12 252 67 379 89 119 19 224 19 232 -1z m-1723
-456 c-4 -13 -10 -25 -14 -28 -4 -3 -96 -139 -205 -304 -110 -164 -205 -301
-213 -303 -7 -3 -21 5 -30 18 -33 48 -99 100 -174 137 -43 20 -76 42 -74 48 6
17 226 298 244 311 16 11 289 99 341 109 14 3 28 7 33 10 4 3 8 -1 8 -8 0 -11
-19 -43 -100 -162 -67 -100 -118 -175 -174 -255 -36 -52 -63 -97 -61 -100 3
-2 6 -2 8 0 8 10 126 178 147 210 230 341 228 339 252 339 15 0 18 -4 12 -22z
m1083 -515 c139 -171 176 -238 143 -258 -18 -11 -68 24 -103 72 -33 46 -97
167 -130 246 -28 65 5 44 90 -60z m-1739 -29 c57 -29 162 -135 162 -165 0 -16
-7 -19 -40 -19 -38 0 -40 2 -40 30 0 53 -75 102 -130 85 -15 -5 -24 1 -40 27
-44 72 -7 90 88 42z m1079 -38 c20 -20 -59 -92 -153 -139 -105 -53 -320 -86
-375 -57 -74 40 77 160 246 195 68 14 269 15 282 1z m-1083 -109 c11 -18 -15
-80 -70 -167 -12 -19 -42 -82 -65 -140 -32 -78 -55 -116 -86 -147 -89 -89
-155 -57 -137 67 11 82 48 136 192 276 75 74 141 132 146 131 5 -2 14 -11 20
-20z m1099 -69 c-6 -59 -46 -196 -71 -245 -24 -46 -71 -89 -119 -110 -35 -14
-119 -17 -174 -6 -65 13 -167 141 -185 231 l-6 31 85 0 c47 0 102 3 123 6 87
16 212 65 292 116 25 15 48 26 52 24 4 -3 5 -24 3 -47z"/>
<path d="M4321 4917 c-5 -12 -24 -38 -42 -57 -19 -19 -25 -28 -14 -20 34 24
55 48 65 75 5 14 7 25 5 25 -3 0 -9 -10 -14 -23z"/>
<path d="M4200 4789 c0 -5 5 -7 10 -4 6 3 10 8 10 11 0 2 -4 4 -10 4 -5 0 -10
-5 -10 -11z"/>
<path d="M2258 4524 c-4 -3 45 -83 108 -177 151 -229 141 -216 149 -194 14 35
-7 90 -73 186 -110 160 -159 210 -184 185z"/>
<path d="M2150 4443 c0 -15 68 -115 94 -138 11 -10 72 -101 130 -192 27 -44
46 -53 63 -30 19 23 -6 71 -94 188 -121 158 -125 164 -150 177 -30 16 -43 15
-43 -5z"/>
<path d="M2060 4352 c0 -36 58 -127 151 -238 72 -87 101 -109 125 -100 17 7
18 20 1 38 -7 7 -35 42 -62 78 -28 35 -55 71 -62 80 -7 8 -37 50 -68 93 -60
82 -85 96 -85 49z"/>
<path d="M2575 4020 c-3 -5 -1 -10 4 -10 6 0 11 5 11 10 0 6 -2 10 -4 10 -3 0
-8 -4 -11 -10z"/>
<path d="M2500 3968 c-26 -14 -50 -18 -93 -16 -66 3 -76 -6 -16 -16 44 -7 103
6 133 29 30 23 15 25 -24 3z"/>
<path d="M4016 4411 c-4 -5 -2 -12 3 -15 5 -4 12 -2 15 3 4 5 2 12 -3 15 -5 4
-12 2 -15 -3z"/>
<path d="M4135 3492 c-82 -16 -149 -74 -149 -129 0 -46 43 -84 116 -102 134
-33 162 -62 115 -117 -18 -20 -35 -28 -75 -32 -46 -4 -54 -2 -80 24 -16 16
-31 36 -35 44 -10 27 -28 -11 -23 -50 11 -74 105 -110 187 -71 100 48 138 109
108 174 -12 27 -70 58 -154 82 -33 10 -66 22 -72 27 -24 20 -13 47 28 72 54
31 105 28 134 -8 12 -14 23 -26 27 -26 14 0 17 34 4 58 -21 40 -79 64 -131 54z"/>
<path d="M3795 3393 c-65 -14 -127 -38 -135 -52 -14 -28 -35 -324 -24 -365 9
-38 38 -40 123 -11 41 14 87 25 102 25 14 0 31 6 38 13 29 35 -64 51 -132 22
-57 -24 -64 -21 -62 28 2 54 7 63 42 70 16 3 36 12 47 20 17 13 17 14 1 30
-12 13 -26 16 -51 11 l-34 -6 0 65 0 65 38 12 c104 34 143 94 47 73z"/>
<path d="M3382 3295 c-84 -26 -98 -59 -109 -253 -7 -135 -2 -167 28 -183 27
-14 39 1 39 48 0 28 5 33 38 43 99 32 181 134 182 225 0 97 -79 150 -178 120z
m96 -67 c35 -28 -8 -145 -68 -185 -59 -40 -66 -34 -62 55 5 114 13 136 48 143
32 7 62 2 82 -13z"/>
<path d="M3122 3217 c-13 -28 -34 -245 -31 -327 2 -44 8 -69 22 -87 38 -48 46
-18 53 209 6 198 5 207 -14 217 -16 8 -21 6 -30 -12z"/>
<path d="M2825 3154 c-55 -35 -92 -91 -111 -165 -35 -135 4 -258 91 -287 63
-21 136 13 171 80 20 38 18 107 -2 115 -19 7 -34 -12 -34 -44 0 -12 -15 -38
-34 -57 -56 -60 -107 -44 -126 40 -28 125 45 293 123 282 16 -2 23 -11 25 -33
2 -16 8 -34 13 -40 15 -15 39 23 39 62 0 71 -81 96 -155 47z"/>
<path d="M2525 3090 c-27 -11 -60 -20 -71 -20 -12 0 -31 -8 -43 -17 -17 -15
-22 -37 -32 -133 -12 -119 -6 -278 13 -330 13 -39 30 -38 150 1 51 17 99 32
107 35 11 3 11 7 0 20 -14 17 -62 15 -141 -7 -26 -7 -49 -11 -52 -8 -2 2 -6
30 -8 63 l-3 58 45 17 c32 12 45 22 45 36 0 17 -7 20 -42 20 -22 0 -44 3 -47
6 -3 3 -3 45 2 94 l7 88 38 13 c49 17 97 51 97 70 0 18 -4 17 -65 -6z"/>
<path d="M1992 2983 c-29 -14 -58 -35 -64 -47 -8 -14 -12 -88 -12 -217 0 -188
1 -197 23 -228 30 -41 47 -35 43 15 -4 57 7 120 21 122 7 0 31 4 54 8 41 6 44
5 101 -50 49 -47 65 -56 95 -56 21 0 37 2 37 5 0 2 -31 36 -70 74 -38 38 -70
73 -70 78 0 5 14 22 31 39 67 64 92 169 52 222 -49 65 -149 80 -241 35z m168
-58 c19 -20 22 -32 17 -65 -3 -22 -17 -56 -31 -74 -29 -38 -131 -100 -152 -92
-11 4 -14 29 -14 103 0 54 5 105 10 113 12 19 66 38 111 39 25 1 42 -6 59 -24z"/>
<path d="M4275 2993 c-72 -6 -208 -35 -325 -68 -236 -68 -299 -88 -633 -199
-305 -102 -438 -144 -697 -217 -41 -12 -109 -32 -150 -45 -42 -13 -94 -27
-115 -33 -22 -5 -116 -30 -210 -56 -93 -26 -201 -55 -240 -66 -65 -17 -67 -18
-20 -13 28 3 115 24 195 46 80 22 186 51 235 65 50 13 144 40 210 59 66 20
190 56 275 80 85 25 281 87 435 138 662 220 870 278 1038 292 48 4 87 11 87
15 0 9 -6 9 -85 2z"/>
<path d="M4420 2990 c0 -5 5 -10 11 -10 5 0 7 5 4 10 -3 6 -8 10 -11 10 -2 0
-4 -4 -4 -10z"/>
<path d="M2024 3416 c-126 -37 -148 -45 -143 -50 2 -3 51 9 109 25 58 16 120
32 138 36 35 6 55 24 25 22 -10 -1 -68 -16 -129 -33z"/>
<path d="M1795 3340 c3 -5 10 -10 16 -10 5 0 9 5 9 10 0 6 -7 10 -16 10 -8 0
-12 -4 -9 -10z"/>
<path d="M1420 2671 c-143 -29 -139 -41 6 -16 102 17 143 29 128 36 -5 3 -65
-6 -134 -20z"/>
<path d="M2100 3230 c-202 -49 -243 -60 -237 -66 3 -3 80 13 171 35 92 23 174
41 184 41 19 0 49 17 42 23 -3 2 -75 -13 -160 -33z"/>
<path d="M4760 2543 c-51 -6 -257 -51 -310 -68 -25 -7 -117 -36 -206 -64 -88
-28 -201 -58 -250 -66 l-89 -14 81 4 c49 2 112 14 165 31 46 15 89 29 94 30 6
2 62 19 125 39 153 48 380 95 458 95 34 0 62 4 62 10 0 10 -59 11 -130 3z"/>
<path d="M4100 2694 c-74 -25 -139 -50 -145 -56 -7 -8 -5 -9 5 -6 8 3 81 26
163 52 81 26 147 49 147 51 0 12 -44 1 -170 -41z"/>
<path d="M3880 2600 c0 -5 5 -10 10 -10 6 0 10 5 10 10 0 6 -4 10 -10 10 -5 0
-10 -4 -10 -10z"/>
<path d="M2945 1681 c-27 -14 -86 -33 -130 -42 -78 -17 -79 -18 -30 -18 46 0
141 31 200 66 39 23 9 18 -40 -6z"/>
<path d="M1917 1428 c-45 -73 -67 -118 -58 -118 10 0 40 50 68 113 15 33 9 36
-10 5z"/>
<path d="M3100 1490 c-41 -132 -108 -200 -197 -200 -24 0 -43 -4 -43 -10 0
-16 72 -11 115 9 59 27 121 118 144 215 18 75 6 66 -19 -14z"/>
<path d="M3575 5051 c-3 -5 -1 -12 5 -16 5 -3 10 1 10 9 0 18 -6 21 -15 7z"/>
<path d="M1804 4983 c12 -32 70 -123 78 -123 4 0 8 -5 8 -11 0 -11 89 -139 96
-139 6 0 -40 78 -59 101 -8 9 -38 55 -67 103 -51 83 -69 106 -56 69z"/>
<path d="M3556 4960 c-6 -16 -50 -138 -120 -335 -48 -134 -62 -185 -48 -170 5
6 21 44 35 85 14 41 53 151 86 245 34 93 60 174 57 180 -2 5 -6 3 -10 -5z"/>
<path d="M2550 4820 c0 -5 5 -10 10 -10 6 0 10 5 10 10 0 6 -4 10 -10 10 -5 0
-10 -4 -10 -10z"/>
<path d="M3715 4770 c-3 -5 -1 -10 4 -10 6 0 11 5 11 10 0 6 -2 10 -4 10 -3 0
-8 -4 -11 -10z"/>
<path d="M2600 4747 c0 -3 155 -361 280 -646 52 -117 96 -209 98 -203 2 6 -27
80 -64 164 -37 84 -82 189 -101 233 -19 44 -41 94 -48 110 -33 71 -137 312
-142 328 -4 13 -23 25 -23 14z"/>
<path d="M4599 4442 c-283 -289 -523 -541 -528 -555 -2 -7 61 55 140 137 79
82 227 234 329 337 271 274 285 289 274 289 -5 0 -102 -94 -215 -208z"/>
<path d="M1290 4610 c0 -5 5 -10 11 -10 5 0 7 5 4 10 -3 6 -8 10 -11 10 -2 0
-4 -4 -4 -10z"/>
<path d="M1350 4557 c0 -2 42 -39 92 -83 126 -108 151 -129 232 -203 39 -35
100 -87 136 -116 36 -29 71 -59 79 -68 7 -10 17 -17 22 -17 20 0 6 18 -43 55
-28 22 -59 47 -67 56 -30 30 -366 324 -402 352 -32 24 -49 33 -49 24z"/>
<path d="M2970 4324 c0 -8 5 -12 10 -9 6 4 8 11 5 16 -9 14 -15 11 -15 -7z"/>
<path d="M4696 4070 c-32 -22 -60 -40 -61 -40 -9 0 -245 -153 -242 -156 4 -4
364 210 382 227 25 25 -27 4 -79 -31z"/>
<path d="M1585 4012 c15 -16 447 -272 458 -272 15 0 23 -5 -319 206 -95 58
-163 90 -139 66z"/>
<path d="M5270 3995 c-14 -8 -88 -45 -165 -83 -229 -112 -408 -212 -380 -212
6 0 30 12 55 26 25 15 151 80 280 146 129 66 239 124 245 129 14 14 -7 10 -35
-6z"/>
<path d="M1136 3900 c25 -25 541 -236 552 -226 3 3 -8 10 -24 16 -16 6 -69 27
-119 47 -88 34 -121 48 -313 132 -96 43 -113 48 -96 31z"/>
<path d="M3990 3810 c0 -5 5 -10 10 -10 6 0 10 5 10 10 0 6 -4 10 -10 10 -5 0
-10 -4 -10 -10z"/>
<path d="M2115 3700 c4 -6 11 -8 16 -5 14 9 11 15 -7 15 -8 0 -12 -5 -9 -10z"/>
<path d="M1580 2320 c0 -5 5 -10 10 -10 6 0 10 5 10 10 0 6 -4 10 -10 10 -5 0
-10 -4 -10 -10z"/>
<path d="M1330 2175 c-96 -57 -179 -108 -185 -112 -5 -4 -22 -14 -37 -22 -16
-8 -28 -18 -28 -23 0 -11 13 -4 159 84 63 37 116 68 118 68 3 0 23 13 46 28
23 15 59 36 80 47 34 18 48 35 30 35 -5 0 -87 -47 -183 -105z"/>
<path d="M4811 2240 c17 -10 313 -122 358 -135 51 -15 9 13 -51 34 -35 13
-115 42 -178 67 -109 41 -169 57 -129 34z"/>
<path d="M4350 2123 c0 -10 8 -17 100 -88 36 -27 67 -52 70 -55 14 -17 122
-91 127 -87 3 3 -23 27 -58 54 -35 26 -86 66 -113 88 -94 75 -126 97 -126 88z"/>
<path d="M4071 2084 c0 -11 3 -14 6 -6 3 7 2 16 -1 19 -3 4 -6 -2 -5 -13z"/>
<path d="M3450 2080 c0 -5 5 -10 10 -10 6 0 10 5 10 10 0 6 -4 10 -10 10 -5 0
-10 -4 -10 -10z"/>
<path d="M1734 1987 c-21 -17 -59 -50 -84 -73 -25 -23 -67 -60 -95 -82 -86
-68 -176 -152 -163 -152 7 0 78 58 158 128 80 70 165 144 190 164 54 47 49 60
-6 15z"/>
<path d="M4150 2006 c0 -3 15 -21 33 -41 56 -61 154 -168 189 -207 38 -41 236
-254 257 -275 7 -8 16 -11 19 -8 4 3 -7 19 -23 34 -17 16 -59 61 -95 101 -36
40 -74 83 -85 94 -11 12 -78 84 -150 161 -123 133 -145 154 -145 141z"/>
<path d="M3484 1983 c4 -10 48 -132 97 -273 50 -140 113 -318 140 -395 28 -77
64 -180 81 -230 32 -95 35 -101 43 -93 3 2 -19 74 -49 159 -145 413 -178 507
-237 671 -35 98 -68 178 -73 178 -4 0 -5 -8 -2 -17z"/>
<path d="M1300 1615 c0 -8 5 -15 10 -15 6 0 10 7 10 15 0 8 -4 15 -10 15 -5 0
-10 -7 -10 -15z"/>
<path d="M2445 1500 c3 -5 8 -10 11 -10 2 0 4 5 4 10 0 6 -5 10 -11 10 -5 0
-7 -4 -4 -10z"/>
<path d="M4090 1424 c0 -3 24 -42 53 -87 29 -45 63 -99 76 -119 12 -21 27 -38
32 -38 12 0 15 -5 -78 138 -66 101 -83 123 -83 106z"/>
<path d="M2389 1364 c-11 -27 -34 -78 -51 -112 -62 -132 -101 -232 -92 -232 3
0 21 35 41 78 19 42 47 104 63 137 53 116 73 166 66 172 -3 3 -15 -16 -27 -43z"/>
<path d="M3414 1383 c3 -10 14 -72 26 -138 12 -66 25 -136 30 -155 4 -19 11
-48 14 -64 4 -15 10 -26 13 -23 8 9 -69 397 -79 397 -5 0 -7 -8 -4 -17z"/>
<path d="M4290 1104 c0 -8 5 -12 10 -9 6 4 8 11 5 16 -9 14 -15 11 -15 -7z"/>
<path d="M3500 911 c0 -6 5 -13 10 -16 6 -3 10 1 10 9 0 9 -4 16 -10 16 -5 0
-10 -4 -10 -9z"/>
</g>
</svg>
